<?xml version="1.0" standalone="no"?><!DOCTYPE svg PUBLIC "-//W3C//DTD SVG 1.1//EN" "http://www.w3.org/Graphics/SVG/1.1/DTD/svg11.dtd"><svg t="1630498109326" class="icon" viewBox="0 0 1024 1024" version="1.1" xmlns="http://www.w3.org/2000/svg" p-id="6552" xmlns:xlink="http://www.w3.org/1999/xlink" width="200" height="200"><defs><style type="text/css"></style></defs><path d="M437.56 832.18c-63.32 33.3-133.38 20.18-95.12 71.26 42.96 57.36 165.5-1.48 165.5-1.48s207.12-130.54 247.32-156.5c29.48-19.04 77.74-57.08 21.62-84.14-40.32-19.44-58.34 7.32-102.6 32.92-44.28 25.6-193.7 115.32-236.72 137.94z" fill="#3AB5E9" p-id="6553"></path><path d="M403.32 936.88c-26.34 0-51.52-7.08-67.52-28.46-6.98-9.32-15.74-23.16-11.34-35.82 5.1-14.68 23.24-19.5 48.36-26.18 18.8-5 40.1-10.66 60.88-21.6 29.3-15.4 107.28-61.56 169.92-98.62 28.18-16.68 52.52-31.08 66.5-39.16 10.2-5.9 19.2-12.02 27.12-17.4 26.9-18.28 48.16-32.72 83.26-15.8 19.38 9.34 29.66 21.24 30.54 35.34 1.22 19.52-15.56 40.22-51.26 63.28-39.78 25.7-245.32 155.24-247.4 156.56l-0.84 0.46c-3.46 1.64-57.98 27.4-108.22 27.4z m38.12-97.34c-22.44 11.8-45.68 17.98-64.34 22.94-17.08 4.54-34.74 9.24-36.92 15.56-0.74 2.16-0.58 7.7 8.94 20.42 37.26 49.76 147.24-0.24 154.84-3.8 10.64-6.7 207.98-131.1 246.82-156.18 39.06-25.22 44.12-41.08 43.68-48.28-0.48-7.66-7.6-14.86-21.16-21.4-26.48-12.76-40.76-3.06-66.7 14.58-8.16 5.56-17.42 11.84-28.14 18.06-13.9 8.04-38.2 22.42-66.34 39.08-62.84 37.16-141.02 83.42-170.68 99.02z" fill="#0B0606" p-id="6554"></path><path d="M515.62 954.22m-25.78 0a25.78 25.78 0 1 0 51.56 0 25.78 25.78 0 1 0-51.56 0Z" fill="#0B0606" p-id="6555"></path><path d="M749.24 812.44m-25.78 0a25.78 25.78 0 1 0 51.56 0 25.78 25.78 0 1 0-51.56 0Z" fill="#0B0606" p-id="6556"></path><path d="M424.68 275.46l-68.76-138.4c-4.96-9.96-0.88-22.06 9.08-27.02 9.26-4.6 20.42-1.32 25.92 7.16l83.52 130.04c8.56 13.32 4.68 31.04-8.62 39.6s-31.04 4.68-39.6-8.62c-0.54-0.9-1.08-1.84-1.54-2.76z" fill="#3AB5E9" p-id="6557"></path><path d="M450.4 299.68c-12.18 0-24.1-6-31.16-16.98-0.74-1.14-1.4-2.34-2-3.52l-0.02-0.02-68.76-138.4c-6.98-14.06-1.22-31.16 12.82-38.16 12.96-6.46 28.7-2.1 36.6 10.08l83.52 130.06c5.34 8.3 7.12 18.2 5.02 27.84a36.784 36.784 0 0 1-16.14 23.24 36.52 36.52 0 0 1-19.88 5.86z m-18.28-27.92c0.34 0.66 0.7 1.32 1.12 1.96 6.04 9.42 18.66 12.16 28.1 6.1 9.44-6.06 12.18-18.68 6.12-28.1l-83.52-130.04c-3.28-5.06-9.86-6.88-15.24-4.2-5.84 2.9-8.24 10.04-5.34 15.88l68.76 138.4z" fill="#0B0606" p-id="6558"></path><path d="M354.92 149.24l-154.54 0.78c-11.14 0.06-20.2-8.92-20.26-20.06-0.06-10.34 7.8-18.92 17.84-20.12l153.52-17.72c15.72-1.82 29.94 9.46 31.74 25.18 1.82 15.72-9.46 29.94-25.18 31.74-1.02 0.14-2.1 0.2-3.12 0.2z" fill="#F4AA2C" p-id="6559"></path><path d="M200.26 158.34c-7.54 0-14.64-2.92-20.02-8.24-5.4-5.36-8.4-12.48-8.44-20.08-0.08-14.48 10.74-26.7 25.16-28.4l153.56-17.72c9.8-1.14 19.48 1.62 27.2 7.76 7.74 6.14 12.62 14.92 13.74 24.72 1.14 9.8-1.62 19.48-7.76 27.2a36.666 36.666 0 0 1-24.72 13.74c-1.36 0.16-2.72 0.24-4.04 0.24l-154.54 0.78h-0.14z m154.56-58.08c-0.78 0-1.58 0.04-2.36 0.14l-153.52 17.72c-6 0.72-10.52 5.8-10.48 11.82a11.78 11.78 0 0 0 3.52 8.36c2.26 2.22 5.32 3.4 8.4 3.42l154.54-0.78c0.74 0 1.5-0.04 2.24-0.14 5.38-0.62 10.22-3.32 13.6-7.56 3.38-4.26 4.9-9.58 4.26-14.98a20.2 20.2 0 0 0-7.56-13.6c-3.68-2.88-8.08-4.4-12.64-4.4z" fill="#0B0606" p-id="6560"></path><path d="M594.24 543.38l119.68 161.06c8.26 11.12 5.94 26.84-5.18 35.1-10.14 7.54-24.1 6.26-32.74-2.44l-141.5-142.28c-15.4-15.48-15.32-40.5 0.16-55.9s40.5-15.32 55.9 0.16c1.28 1.3 2.6 2.86 3.68 4.3z" fill="#F4AA2C" p-id="6561"></path><path d="M693.82 752.76c-8.66 0-17.28-3.32-23.72-9.8l-141.5-142.26c-18.6-18.7-18.52-49.06 0.18-67.64 9.02-8.98 21-13.92 33.72-13.92h0.12c12.78 0.04 24.78 5.04 33.78 14.1 1.48 1.48 3.06 3.32 4.44 5.16l0.04 0.04 119.68 161.06c5.32 7.16 7.54 15.96 6.24 24.78-1.3 8.82-5.96 16.62-13.12 21.94a33.28 33.28 0 0 1-19.86 6.54z m-131.3-217.02c-8.3 0-16.12 3.22-22 9.08-12.2 12.14-12.26 31.94-0.12 44.14l141.5 142.28c5.82 5.86 15.22 6.58 21.9 1.64a16.694 16.694 0 0 0 6.6-11.02c0.64-4.44-0.46-8.86-3.14-12.44l-119.66-161.04c-0.94-1.22-2-2.48-2.94-3.42a30.988 30.988 0 0 0-22.06-9.2c-0.04-0.02-0.06-0.02-0.08-0.02z" fill="#0B0606" p-id="6562"></path><path d="M645.48 475.5c-20.64 19.3-53.02 18.2-72.3-2.44l-142.68-140.86c-19.3-20.64-18.2-53.02 2.44-72.3 20.64-19.3 53.02-18.2 72.3 2.44l142.68 140.86c19.3 20.64 18.2 53.02-2.44 72.3z" fill="#3AB5E9" p-id="6563"></path><path d="M610.6 497.6c-0.68 0-1.36-0.02-2.06-0.04-15.88-0.54-30.58-7.22-41.44-18.82l-142.46-140.62c-22.62-24.2-21.34-61.9 2.6-84.3 23.96-22.38 61.66-21.12 84.06 2.84l142.46 140.62c11.08 11.84 16.76 26.98 16.22 42.86-0.54 15.88-7.22 30.58-18.82 41.44-11.12 10.38-25.44 16.02-40.56 16.02z m-142.84-243.14a42.56 42.56 0 0 0-29.16 11.5c-17.26 16.14-18.18 43.3-2.06 60.56l142.46 140.62c8.06 8.6 18.66 13.42 30.1 13.8 11.42 0.36 22.34-3.7 30.7-11.52 8.36-7.82 13.18-18.42 13.56-29.86 0.38-11.44-3.7-22.34-11.52-30.7l-142.46-140.62c-8.56-9.14-20.1-13.78-31.62-13.78z" fill="#0B0606" p-id="6564"></path><path d="M649.24 478.14l-129.12 153.6c-8.92 10.6-24.74 11.98-35.34 3.06-9.66-8.12-11.66-22-5.18-32.42l105.8-170.5c11.5-18.54 35.88-24.26 54.42-12.74 18.54 11.5 24.26 35.88 12.74 54.42-0.98 1.56-2.18 3.2-3.32 4.58z" fill="#F4AA2C" p-id="6565"></path><path d="M500.86 649c-7.84 0-15.36-2.72-21.44-7.84-12.62-10.62-15.58-29.18-6.88-43.18l105.8-170.5c6.74-10.86 17.3-18.44 29.74-21.36 12.44-2.92 25.28-0.82 36.12 5.92 22.4 13.9 29.32 43.46 15.42 65.86-1.1 1.78-2.52 3.72-3.98 5.5l-0.04 0.06-129.12 153.6c-5.74 6.82-13.8 11.02-22.68 11.78-1 0.12-1.98 0.16-2.94 0.16z m118.18-227.52c-2.4 0-4.8 0.28-7.18 0.84-8.12 1.9-15 6.86-19.4 13.94l-105.8 170.5c-4.38 7.04-2.88 16.34 3.46 21.68a16.676 16.676 0 0 0 12.24 3.88 16.532 16.532 0 0 0 11.38-5.92l129.1-153.56c0.98-1.2 1.94-2.52 2.66-3.66 9.06-14.62 4.54-33.9-10.08-42.98a30.84 30.84 0 0 0-16.38-4.72z" fill="#0B0606" p-id="6566"></path><path d="M518.26 664.86l-57.6 192.22c-3.98 13.26-17.96 20.8-31.22 16.82-12.1-3.62-19.42-15.58-17.62-27.72l29.48-198.48c3.2-21.6 23.3-36.5 44.9-33.28s36.5 23.3 33.28 44.9c-0.24 1.84-0.7 3.82-1.22 5.54z" fill="#F4AA2C" p-id="6567"></path><path d="M436.7 883.3c-3.22 0-6.46-0.48-9.64-1.42-15.8-4.74-25.88-20.6-23.44-36.9l29.48-198.48c3.88-26.08 28.18-44.16 54.34-40.28 26.08 3.88 44.16 28.26 40.28 54.34a50.76 50.76 0 0 1-1.48 6.66l-0.02 0.06-57.6 192.22a33.26 33.26 0 0 1-16.14 19.82c-4.94 2.62-10.32 3.98-15.78 3.98z m43.64-261c-6.64 0-13.08 2.12-18.52 6.14-6.7 4.96-11.06 12.24-12.3 20.5l-29.48 198.48c-1.22 8.18 3.84 16.14 11.78 18.52 8.84 2.64 18.22-2.4 20.88-11.26l57.58-192.18c0.42-1.46 0.78-3.06 0.98-4.4 2.52-17.02-9.28-32.94-26.3-35.46-1.52-0.22-3.08-0.34-4.62-0.34z" fill="#0B0606" p-id="6568"></path><path d="M370.6 265.38m-65.96 0a65.96 65.96 0 1 0 131.92 0 65.96 65.96 0 1 0-131.92 0Z" fill="#F4AA2C" p-id="6569"></path><path d="M370.56 339.7c-10.5 0-20.96-2.26-30.78-6.74-18.04-8.24-31.8-23-38.74-41.58-14.34-38.36 5.22-81.22 43.58-95.56 18.6-6.94 38.76-6.24 56.82 2 18.04 8.24 31.82 23 38.76 41.58 14.32 38.36-5.24 81.22-43.58 95.56-8.5 3.16-17.3 4.74-26.06 4.74z m0.06-132c-6.8 0-13.62 1.22-20.2 3.68-14.42 5.38-25.88 16.06-32.28 30.08-6.38 14-6.94 29.66-1.56 44.08 5.38 14.42 16.06 25.88 30.08 32.28 14.02 6.38 29.68 6.96 44.1 1.56 29.78-11.12 44.94-44.4 33.82-74.18-5.38-14.42-16.06-25.88-30.08-32.28-7.6-3.46-15.72-5.22-23.88-5.22z" fill="#0B0606" p-id="6570"></path><path d="M485.36 278.3l154.16 10.98c11.1 0.8 19.46 10.44 18.68 21.54-0.74 10.32-9.22 18.28-19.32 18.7l-154.42 5.98c-15.82 0.62-29.12-11.7-29.74-27.52-0.62-15.82 11.7-29.12 27.52-29.74 1.02-0.02 2.08 0 3.12 0.06z" fill="#3AB5E9" p-id="6571"></path><path d="M483.28 343.86c-9.34 0-18.18-3.46-25.08-9.84-7.24-6.7-11.44-15.84-11.84-25.7-0.38-9.86 3.1-19.28 9.8-26.54 6.7-7.24 15.84-11.44 25.7-11.84 1.34-0.04 2.72-0.02 4.04 0.06h0.02l154.16 10.98c15.66 1.12 27.48 14.76 26.36 30.42-1.02 14.44-12.74 25.8-27.26 26.42l-154.46 5.98c-0.46 0.04-0.94 0.06-1.44 0.06z m0.04-57.32c-0.26 0-0.52 0-0.76 0.02-5.44 0.22-10.46 2.52-14.16 6.5-3.68 3.98-5.6 9.18-5.4 14.6 0.22 5.44 2.52 10.46 6.5 14.14 3.98 3.68 9.04 5.58 14.6 5.4l154.42-5.98a11.88 11.88 0 0 0 11.36-11c0.46-6.52-4.46-12.18-10.98-12.66l-154.14-10.98c-0.48-0.02-0.96-0.04-1.44-0.04z" fill="#0B0606" p-id="6572"></path><path d="M667.88 285.84l125.24 90.54c9.02 6.52 11.04 19.12 4.52 28.14-6.06 8.38-17.46 10.68-26.28 5.72l-134.42-76.26c-13.76-7.8-18.58-25.3-10.78-39.06 7.8-13.76 25.3-18.58 39.06-10.78 0.92 0.52 1.82 1.1 2.66 1.7z" fill="#F4AA2C" p-id="6573"></path><path d="M781.3 421.16c-4.76 0-9.58-1.2-14-3.68l-134.44-76.28c-8.58-4.86-14.76-12.8-17.38-22.32-2.62-9.52-1.4-19.48 3.48-28.08 10.06-17.72 32.66-23.96 50.4-13.9 1.18 0.68 2.34 1.42 3.4 2.18h0.02l125.24 90.54a28.26 28.26 0 0 1 11.42 18.54c1.2 7.5-0.58 15.04-5.04 21.2-5.54 7.66-14.22 11.8-23.1 11.8z m-130.18-132.44c-7.1 0-14 3.7-17.74 10.3a20.26 20.26 0 0 0-1.92 15.46c1.44 5.24 4.84 9.6 9.58 12.28l134.42 76.26c5.26 2.96 11.92 1.52 15.44-3.36 1.86-2.56 2.6-5.7 2.1-8.82a11.808 11.808 0 0 0-4.76-7.72l-125.24-90.54c-0.6-0.42-1.24-0.84-1.9-1.22a19.998 19.998 0 0 0-9.98-2.64z" fill="#0B0606" p-id="6574"></path></svg>